<svg width="16px" height="16px" xmlns="http://www.w3.org/2000/svg" xml:space="preserve" viewBox="0 0 32 32"><path fill="#BB6464" d="M12 21v2l2 1h5l2-1 1-2 3 3v1h1v-1l1-3-2-2H10z"/><path fill="#4848AA" d="M29.5 15H3v1H2v2l2 3 1.408-2 .57-1.141L7 18v1h18l1-2 1-2 1 3 2 1v-4z"/><path fill="#F3F3F3" d="m29 13-1-2 1-2-1-1-2 1-2 2-4 2-1-2h-2l-3 2-4-1 1-2-2-1-4 3-2 1v2h27z"/><path fill="#4D4D4D" d="M30.895 14.553 29.118 11l.777-1.553a1 1 0 0 0-.188-1.154l-1-1a1.005 1.005 0 0 0-1.154-.188l-2 1a1.013 1.013 0 0 0-.26.188l-1.886 1.885-2.96 1.48-.552-1.105A1 1 0 0 0 19 10h-2c-.197 0-.39.059-.555.168l-2.632 1.754-2.36-.59.442-.885a1 1 0 0 0-.448-1.342l-2-1A1.002 1.002 0 0 0 8.4 8.2l-3.928 2.946-1.92.96A1 1 0 0 0 2 13v2a1 1 0 0 0-1 1v2c0 .197.059.39.168.555l2 3a1 1 0 0 0 1.59.096l.98-1.141a1 1 0 0 0 .135-.204l.343-.685c.023.03.05.059.077.086l1 1a1 1 0 0 0 1.154.188l1.356-.678L11 21.414V23a1 1 0 0 0 .553.895l2 1A1 1 0 0 0 14 25h5a1 1 0 0 0 .447-.105l2-1c.194-.097.35-.254.448-.448l.38-.759L24 24.414V25a1 1 0 0 0 1 1h1a1 1 0 0 0 1-1v-.838l.948-2.846a1 1 0 0 0-.241-1.023l-1.49-1.49.597-1.197.238.71c.083.252.263.46.5.579l2 1A1.001 1.001 0 0 0 31 19v-4a1 1 0 0 0-.105-.447zM29 17.382l-.183-.091-.869-2.607a1 1 0 0 0-1.843-.131l-2 4a1 1 0 0 0 .188 1.154l1.562 1.563-.543 1.629-2.605-2.606a1.003 1.003 0 0 0-1.602.26l-.85 1.702-1.491.745h-4.528L13 22.382V21a1 1 0 0 0-.293-.707l-2-2a1.002 1.002 0 0 0-1.154-.188l-1.356.678L8 18.586V18a1 1 0 0 0-.863-.99l-1.022-.142a1 1 0 0 0-1.031.544l-.944 1.89-.04.045-1.1-1.65V17a1 1 0 0 0 1-1v-2.382l1.447-.723A.98.98 0 0 0 5.6 12.8l3.505-2.63.553.277-.553 1.106a1 1 0 0 0 .653 1.417l4 1c.272.067.561.018.797-.138L17.303 12h1.079l.723 1.447a1 1 0 0 0 1.342.448l4-2c.096-.049.184-.112.26-.188l1.886-1.885 1.17-.586-.658 1.317c-.14.281-.14.613 0 .894L29 15.236v2.146z"/></svg>
